<svg xmlns="http://www.w3.org/2000/svg" width="24.124" height="24.124" viewBox="0 0 24.124 24.124">
  <defs>
    <style>
      .cls-1 {
        fill: #fff;
        fill-rule: evenodd;
      }
    </style>
  </defs>
  <path id="decrease" class="cls-1" d="M444.5,542.566h24a0.067,0.067,0,0,0,.067-0.067V532.475a0.066,0.066,0,0,0-.067-0.066H465.96a0.066,0.066,0,0,0-.067.066v7.351a0.067,0.067,0,0,1-.067.067H447.174a0.067,0.067,0,0,1-.067-0.067V521.174a0.067,0.067,0,0,1,.067-0.067h7.351a0.066,0.066,0,0,0,.066-0.067V518.5a0.066,0.066,0,0,0-.066-0.067H444.5a0.067,0.067,0,0,0-.067.067v24A0.067,0.067,0,0,0,444.5,542.566Zm12.558-12.558H468.5a0.067,0.067,0,0,0,.067-0.067V518.5a0.067,0.067,0,0,0-.067-0.067h-11.44a0.067,0.067,0,0,0-.067.067v11.44A0.067,0.067,0,0,0,457.059,530.008Zm2.606-8.834a0.067,0.067,0,0,1,.067-0.067h6.094a0.067,0.067,0,0,1,.067.067v6.094a0.067,0.067,0,0,1-.067.067h-6.094a0.067,0.067,0,0,1-.067-0.067v-6.094Zm-4.96,16.143a0.067,0.067,0,0,0,.112-0.035l1.2-6.219a0.065,0.065,0,0,0-.077-0.077l-6.22,1.2a0.066,0.066,0,0,0-.034.112l1.561,1.561-3.233,3.234a0.065,0.065,0,0,0,0,.093l1.806,1.806a0.065,0.065,0,0,0,.093,0l3.234-3.233Z" transform="translate(-444.438 -518.438)"/>
</svg>
