<svg viewBox="0 0 106 54" xmlns="http://www.w3.org/2000/svg" xmlns:svg="http://www.w3.org/2000/svg">
    <defs>
        <style>
            .cls-1 {
                fill: #464444;
                fill-rule: evenodd;
            }
        </style>
    </defs>
    <g>
        <title>Layer 1</title>
        <path fill="black" id="delete" class="cls-1" d="m39.61691,18.5a4.267,4.267 0 0 0 -2.667,1.145l-5.993,6.21a1.666,1.666 0 0 0 0,2.29l5.993,6.21a4.269,4.269 0 0 0 2.667,1.145l35.882,0l0,-17l-35.882,0zm19.966,11.975a0.831,0.831 0 0 1 0,1.145a0.761,0.761 0 0 1 -1.1,0l-3.354,-3.475l-3.353,3.475a0.764,0.764 0 0 1 -1.106,0a0.831,0.831 0 0 1 0,-1.145l3.354,-3.475l-3.354,-3.475a0.831,0.831 0 0 1 0,-1.145a0.763,0.763 0 0 1 1.105,0l3.354,3.475l3.354,-3.475a0.761,0.761 0 0 1 1.1,0a0.831,0.831 0 0 1 0,1.145l-3.353,3.475l3.353,3.475z" />
    </g>
</svg>