<svg xmlns="http://www.w3.org/2000/svg" width="24.124" height="24.124" viewBox="0 0 24.124 24.124">
  <defs>
    <style>
      .cls-1 {
        fill: #fff;
        fill-rule: evenodd;
      }
    </style>
  </defs>
  <path id="increase" class="cls-1" d="M444.5,542.566h24a0.067,0.067,0,0,0,.067-0.067V532.475a0.066,0.066,0,0,0-.067-0.066H465.96a0.066,0.066,0,0,0-.067.066v7.351a0.067,0.067,0,0,1-.067.067H447.174a0.067,0.067,0,0,1-.067-0.067V521.174a0.067,0.067,0,0,1,.067-0.067h7.351a0.066,0.066,0,0,0,.066-0.067V518.5a0.066,0.066,0,0,0-.066-0.067H444.5a0.067,0.067,0,0,0-.067.067v24A0.067,0.067,0,0,0,444.5,542.566Zm12.558-12.558H468.5a0.067,0.067,0,0,0,.067-0.067V518.5a0.067,0.067,0,0,0-.067-0.067h-11.44a0.067,0.067,0,0,0-.067.067v11.44A0.067,0.067,0,0,0,457.059,530.008Zm2.606-8.834a0.067,0.067,0,0,1,.067-0.067h6.094a0.067,0.067,0,0,1,.067.067v6.094a0.067,0.067,0,0,1-.067.067h-6.094a0.067,0.067,0,0,1-.067-0.067v-6.094ZM450,531.922a0.066,0.066,0,0,0-.112.035l-1.212,6.292a0.067,0.067,0,0,0,.078.078l6.293-1.211a0.067,0.067,0,0,0,.035-0.113l-1.58-1.579,3.271-3.272a0.065,0.065,0,0,0,0-.094l-1.827-1.828a0.066,0.066,0,0,0-.094,0l-3.272,3.272Z" transform="translate(-444.438 -518.438)"/>
</svg>
